<?xml version="1.0" encoding="UTF-8"?>
<svg version="1.1" xmlns="http://www.w3.org/2000/svg" width="420" height="100">
<path d="M0 0 C1.11375 0.61875 2.2275 1.2375 3.375 1.875 C12.38331596 6.35532646 21.87303266 6.68482361 31.6875 5.4375 C35.37135807 4.98019348 38.33398718 5.32665071 42 6 C51.50626556 6.77077829 60.92883318 5.24846367 69 0 C73.74524215 9.49048431 68.94286592 28.23026634 65.828125 37.89453125 C63.79217454 43.39285425 61.5949376 48.36137084 58 53 C57.46375 53.804375 56.9275 54.60875 56.375 55.4375 C50.86721426 61.38011093 43.48047744 65.95709392 36 69 C26.8085106 68.15202075 18.03238595 61.02371524 11.96484375 54.484375 C1.20456412 40.87893197 -1.09227185 21.88574885 -1 5 C-0.51171875 2.01953125 -0.51171875 2.01953125 0 0 Z " fill="#24417D" transform="translate(1,15)"/>
<path d="M0 0 C6.249375 -0.0928125 6.249375 -0.0928125 12.625 -0.1875 C13.92775879 -0.21481201 15.23051758 -0.24212402 16.57275391 -0.27026367 C27.29721037 -0.34747179 27.29721037 -0.34747179 32 3 C34.39200824 6.15310177 34.39458572 9.13305998 34 13 C32.5 15.875 32.5 15.875 31 18 C32.2684375 19.2065625 32.2684375 19.2065625 33.5625 20.4375 C35.87895857 23.21593037 36.36941974 25.01831848 36.125 28.625 C35.53063185 32.01975656 35.09245444 32.90267953 32.625 35.5 C28.49525668 37.85985333 25.48702022 38.11965737 20.80078125 38.09765625 C19.71192627 38.09515869 18.62307129 38.09266113 17.5012207 38.09008789 C16.11894287 38.08098389 14.73666504 38.07187988 13.3125 38.0625 C8.919375 38.041875 4.52625 38.02125 0 38 C0 25.46 0 12.92 0 0 Z M10 7 C10 9.64 10 12.28 10 15 C11.58294782 15.05437607 13.16644256 15.09296271 14.75 15.125 C15.63171875 15.14820313 16.5134375 15.17140625 17.421875 15.1953125 C20.1135858 14.99139502 21.69904974 14.36551721 24 13 C23.67 11.35 23.34 9.7 23 8 C19.98509443 6.99503148 17.95818308 6.89664697 14.8125 6.9375 C13.91144531 6.94652344 13.01039063 6.95554687 12.08203125 6.96484375 C11.05142578 6.98224609 11.05142578 6.98224609 10 7 Z M10 22 C10 24.97 10 27.94 10 31 C11.93742341 31.02703381 13.87495479 31.04641125 15.8125 31.0625 C17.43091797 31.07990234 17.43091797 31.07990234 19.08203125 31.09765625 C22.06512169 31.13624766 22.06512169 31.13624766 25 30 C25.33 28.35 25.66 26.7 26 25 C22.61416198 21.86892164 20.28890538 21.66449222 15.75 21.8125 C14.67234375 21.83957031 13.5946875 21.86664062 12.484375 21.89453125 C11.66453125 21.92933594 10.8446875 21.96414062 10 22 Z " fill="#054A84" transform="translate(124,4)"/>
<path d="M0 0 C1.11375 0.61875 2.2275 1.2375 3.375 1.875 C12.38331596 6.35532646 21.87303266 6.68482361 31.6875 5.4375 C35.37135807 4.98019348 38.33398718 5.32665071 42 6 C51.50626556 6.77077829 60.92883318 5.24846367 69 0 C73.74524215 9.49048431 68.94286592 28.23026634 65.828125 37.89453125 C63.79217454 43.39285425 61.5949376 48.36137084 58 53 C57.46375 53.804375 56.9275 54.60875 56.375 55.4375 C50.86721426 61.38011093 43.48047744 65.95709392 36 69 C26.8085106 68.15202075 18.03238595 61.02371524 11.96484375 54.484375 C1.20456412 40.87893197 -1.09227185 21.88574885 -1 5 C-0.51171875 2.01953125 -0.51171875 2.01953125 0 0 Z M63.3203125 5.65625 C54.23517127 9.14804805 44.56659713 8.27154097 35 8 C34.70773214 14.13922418 34.70773214 14.13922418 36 20 C39.42168849 21.66881935 39.42168849 21.66881935 43 23 C45.82540356 27.23810535 45.77772321 31.02415866 45 36 C42.60625391 39.35124453 41.13389222 40.67243114 37.1875 41.8125 C36.465625 41.874375 35.74375 41.93625 35 42 C35 42.66 35 43.32 35 44 C34.34 44 33.68 44 33 44 C32.34 44.66 31.68 45.32 31 46 C30.34 45.34 29.68 44.68 29 44 C31.475 43.505 31.475 43.505 34 43 C34 38.38 34 33.76 34 29 C33.01 29.33 32.02 29.66 31 30 C31.57344937 27.13275314 31.8614515 26.1385485 34 24 C34.14507695 21.25514407 34.18652423 18.61519457 34.125 15.875 C34.11597656 15.12089844 34.10695312 14.36679687 34.09765625 13.58984375 C34.0740687 11.72642746 34.03819719 9.86317407 34 8 C31.06556598 8.26656572 31.06556598 8.26656572 28 9 C27.01 10.485 27.01 10.485 26 12 C25.01 12 24.02 12 23 12 C22.67 11.01 22.34 10.02 22 9 C20.35 9 18.7 9 17 9 C16.67 9.99 16.34 10.98 16 12 C15.01 12 14.02 12 13 12 C12.79375 11.38125 12.5875 10.7625 12.375 10.125 C10.45224112 7.15346355 8.33405473 6.86975341 5 6 C5 6.66 5 7.32 5 8 C5.66 8.33 6.32 8.66 7 9 C6.67 9.99 6.34 10.98 6 12 C3.9375 12.6875 3.9375 12.6875 2 13 C2.14166357 14.91697937 2.28849584 16.83357723 2.4375 18.75 C2.51871094 19.81734375 2.59992188 20.8846875 2.68359375 21.984375 C2.9419185 24.44643307 3.34619724 26.62538837 4 29 C4.185625 30.299375 4.185625 30.299375 4.375 31.625 C4.81236489 34.3540951 4.81236489 34.3540951 8 36 C7.814375 36.78375 7.62875 37.5675 7.4375 38.375 C6.74037734 40.97089775 6.74037734 40.97089775 8 43 C8.66 43 9.32 43 10 43 C10 42.34 10 41.68 10 41 C10.66 41 11.32 41 12 41 C12.33 41.99 12.66 42.98 13 44 C12 46 12 46 10 47 C11.55455064 49.33182595 12.55612479 50.79111755 15.125 52 C15.74375 52.33 16.3625 52.66 17 53 C17.13664062 53.62132812 17.27328125 54.24265625 17.4140625 54.8828125 C18.32448885 58.17248639 20.41692311 59.31335595 23.15625 61.16015625 C25.10234889 62.27773675 25.10234889 62.27773675 27.75 61.3125 C28.4925 60.879375 29.235 60.44625 30 60 C30.99 60 31.98 60 33 60 C32.67 61.98 32.34 63.96 32 66 C32.66 66 33.32 66 34 66 C34 61.38 34 56.76 34 52 C34.495 58.93 34.495 58.93 35 66 C46.27237707 62.24254098 54.72951015 55.02301887 60.6875 44.75 C66.32832049 32.64651762 67.78575746 18.1832641 67 5 C65.00992244 4.87869691 65.00992244 4.87869691 63.3203125 5.65625 Z " fill="#F3EB06" transform="translate(1,15)"/>
<path d="M0 0 C5.7234375 -0.12375 5.7234375 -0.12375 11.5625 -0.25 C12.75174072 -0.28641602 13.94098145 -0.32283203 15.16625977 -0.36035156 C21.68720908 -0.42842107 25.7520573 0.01358199 31 4 C33.98719005 8.33624363 34.55794988 11.7924678 34 17 C32.345456 21.3018144 30.71568528 23.38980786 27 26 C27.5775 26.78246094 28.155 27.56492187 28.75 28.37109375 C29.86375 29.88896484 29.86375 29.88896484 31 31.4375 C31.7425 32.44683594 32.485 33.45617188 33.25 34.49609375 C35 37 35 37 35 38 C31.17095429 38.623172 27.8018163 38.86942754 24 38 C21.76334732 35.60083718 20.28466047 33.12200188 18.63671875 30.29296875 C17.2184276 27.89751411 17.2184276 27.89751411 15.01953125 27.11328125 C12.88371059 26.79985739 12.88371059 26.79985739 10 27 C10 30.63 10 34.26 10 38 C6.7 38 3.4 38 0 38 C0 25.46 0 12.92 0 0 Z M10 7 C10 11.29 10 15.58 10 20 C16.84556731 20.47925374 16.84556731 20.47925374 23 18 C24.08333333 14.58333333 24.08333333 14.58333333 24 11 C22.49597949 8.85139927 21.32895015 8.16447508 19 7 C15.99525503 6.86440682 13.00931153 6.95700984 10 7 Z " fill="#054A84" transform="translate(257,4)"/>
<path d="M0 0 C4.15431888 3.53456035 6.64399258 7.83974948 7.25390625 13.25390625 C7.54433668 19.39042017 6.57144861 23.95313327 3 29 C-1.52619913 33.65192688 -7.53265976 36.09546859 -14 36.375 C-21.28089415 36.04664595 -26.91468216 33.08531784 -32 28 C-35.95685244 22.59230167 -35.76990171 16.43603224 -35 10 C-33.2829547 4.64514686 -29.5616111 1.13051742 -25 -2 C-16.03850261 -5.48502676 -8.28394846 -4.63387822 0 0 Z M-24 9 C-26.10238685 13.27634432 -26.23892099 16.15674943 -24.9375 20.75 C-22.86208421 24.23134261 -21.5418636 26.032298 -18 28 C-12.85518441 28.74999459 -12.85518441 28.74999459 -8.1875 26.94140625 C-5.21708815 24.53508703 -3.21076632 22.67408675 -2.7265625 18.828125 C-2.47361236 12.67269333 -2.47361236 12.67269333 -5.375 7.4375 C-8.92034619 4.14539282 -11.01143509 3.57520791 -15.8984375 3.6640625 C-19.72947095 4.27645818 -21.50746147 6.15138454 -24 9 Z " fill="#054A84" transform="translate(330,7)"/>
<path d="M0 0 C0.98235863 16.48179472 -1.40233056 34.87700613 -11.7421875 48.25390625 C-16.85359727 53.84252232 -23.24056948 57.67228036 -30 61 C-30.66 61 -31.32 61 -32 61 C-32 54.07 -32 47.14 -32 40 C-30.68 40.33 -29.36 40.66 -28 41 C-28 41.66 -28 42.32 -28 43 C-25.04409629 43.3292523 -25.04409629 43.3292523 -23.5 41.6875 C-23.005 41.130625 -22.51 40.57375 -22 40 C-20.32614543 38.25919124 -19.16941862 37.08470931 -17 36 C-17 34.35 -17 32.7 -17 31 C-15.68 30.67 -14.36 30.34 -13 30 C-13.33 29.01 -13.66 28.02 -14 27 C-13.34 26.34 -12.68 25.68 -12 25 C-12.515625 24.608125 -13.03125 24.21625 -13.5625 23.8125 C-14.036875 23.214375 -14.51125 22.61625 -15 22 C-14.6875 19.4375 -14.6875 19.4375 -14 17 C-14 16.34 -14 15.68 -14 15 C-15.31053056 13.97029741 -16.64886795 12.97581759 -18 12 C-19.35197858 10.68557638 -20.69026002 9.3565164 -22 8 C-22.66 8.66 -23.32 9.32 -24 10 C-25.95216435 8.04783565 -26.84826645 6.46800047 -28 4 C-26.96101563 3.96261719 -25.92203125 3.92523437 -24.8515625 3.88671875 C-17.51808983 3.56201856 -10.80516802 3.09539003 -3.8203125 0.62109375 C-2 0 -2 0 0 0 Z " fill="#23417D" transform="translate(68,20)"/>
<path d="M0 0 C1.76171875 1.60546875 1.76171875 1.60546875 3 3 C1.84826645 5.46800047 0.95216435 7.04783565 -1 9 C-3.24665257 8.70044632 -4.81257787 8.11379201 -6.75 6.9375 C-10.15108571 5.52038095 -13.41038853 5.44336045 -17 6 C-20.7160027 7.93878402 -22.24257608 9.91145591 -23.5 13.8125 C-24.37767415 18.2505504 -23.29806494 21.0932896 -21 25 C-18.67302347 27.23389747 -17.44263938 27.95363414 -14.203125 28.29296875 C-13.22859375 28.25816406 -12.2540625 28.22335938 -11.25 28.1875 C-9.5175 28.125625 -7.785 28.06375 -6 28 C-6 24.04 -6 20.08 -6 16 C-3.03 16 -0.06 16 3 16 C3.10792837 18.60527105 3.18724878 21.20608311 3.25 23.8125 C3.30027344 24.91948242 3.30027344 24.91948242 3.3515625 26.04882812 C3.45040872 31.51008174 3.45040872 31.51008174 1.21875 33.9375 C-6.07098976 37.42836129 -13.79340398 38.0410337 -21.5625 36 C-26.76929123 34.12302847 -29.94405 30.51116428 -33 26 C-34.94926781 20.15219658 -34.78007493 13.47788508 -32.9375 7.625 C-24.75950152 -3.45486891 -12.34825249 -5.9183932 0 0 Z " fill="#054A84" transform="translate(247,6)"/>
<path d="M0 0 C5.7234375 -0.12375 5.7234375 -0.12375 11.5625 -0.25 C12.75174072 -0.28641602 13.94098145 -0.32283203 15.16625977 -0.36035156 C21.68720908 -0.42842107 25.7520573 0.01358199 31 4 C33.98719005 8.33624363 34.55794988 11.7924678 34 17 C32.53269699 21.40190903 30.56622108 24.12900324 26.3828125 26.3203125 C21.09388249 27.82895811 15.44182832 27.27171404 10 27 C10 30.63 10 34.26 10 38 C6.7 38 3.4 38 0 38 C0 25.46 0 12.92 0 0 Z M10 7 C10 11.29 10 15.58 10 20 C16.84556731 20.47925374 16.84556731 20.47925374 23 18 C24.08333333 14.58333333 24.08333333 14.58333333 24 11 C22.49597949 8.85139927 21.32895015 8.16447508 19 7 C15.99525503 6.86440682 13.00931153 6.95700984 10 7 Z " fill="#054A84" transform="translate(386,4)"/>
<path d="M0 0 C2.97 0 5.94 0 9 0 C9.01981934 0.66531738 9.03963867 1.33063477 9.06005859 2.01611328 C9.15576418 5.05278268 9.26525808 8.08880678 9.375 11.125 C9.4059375 12.17171875 9.436875 13.2184375 9.46875 14.296875 C9.71538469 21.84924434 9.71538469 21.84924434 12 29 C15.04983996 30.52491998 17.6423369 30.23562548 21 30 C22.81319112 28.93808897 22.81319112 28.93808897 24 27 C24.50664617 24.09912345 24.50664617 24.09912345 24.51171875 20.80078125 C24.54716797 19.59228516 24.58261719 18.38378906 24.61914062 17.13867188 C24.64169922 15.87603516 24.66425781 14.61339844 24.6875 13.3125 C24.72166016 12.03826172 24.75582031 10.76402344 24.79101562 9.45117188 C24.87360784 6.30086897 24.94272335 3.15084843 25 0 C28.3 0 31.6 0 35 0 C35.08738991 4.37487331 35.140524 8.74952078 35.1875 13.125 C35.21263672 14.3625 35.23777344 15.6 35.26367188 16.875 C35.27333984 18.07382812 35.28300781 19.27265625 35.29296875 20.5078125 C35.3086792 21.60754395 35.32438965 22.70727539 35.34057617 23.84033203 C34.84636474 28.42533869 33.05459113 31.69085239 30.1875 35.25 C25.11205146 39.31035883 19.25819872 39.6880742 13 39 C7.10965287 37.23289586 4.49412045 34.83010768 1 30 C-0.40912096 27.18175808 -0.11183553 24.82748718 -0.09765625 21.6796875 C-0.09443359 20.42285156 -0.09121094 19.16601562 -0.08789062 17.87109375 C-0.07951172 16.55238281 -0.07113281 15.23367187 -0.0625 13.875 C-0.05748489 12.53515789 -0.05292201 11.195314 -0.04882812 9.85546875 C-0.03701086 6.57026794 -0.02053617 3.28515603 0 0 Z " fill="#054A84" transform="translate(343,4)"/>
<path d="M0 0 C-0.59861742 2.35171131 -1.26924352 4.6859378 -2 7 C-2.99 7.495 -2.99 7.495 -4 8 C-4.680625 7.690625 -5.36125 7.38125 -6.0625 7.0625 C-9.95577956 5.6542925 -13.90046455 5.25096896 -18 6 C-20.18490007 8.67642489 -20.18490007 8.67642489 -20 11 C-19.20335937 11.18175781 -18.40671875 11.36351562 -17.5859375 11.55078125 C-2.41278598 15.1502515 -2.41278598 15.1502515 1 20 C2.22897538 24.34868212 2.1923919 27.03281465 0 31 C-3.09434051 35.01118214 -6.08492719 36.03310043 -11 37 C-18.37178719 37.91973148 -24.24093963 35.82996173 -31 33 C-29.25 27.25 -29.25 27.25 -27 25 C-26.030625 25.495 -25.06125 25.99 -24.0625 26.5 C-19.7543027 28.36395475 -15.63380841 28.49074957 -11 28 C-10.34 27.67 -9.68 27.34 -9 27 C-9 26.01 -9 25.02 -9 24 C-10.18078125 23.62488281 -11.3615625 23.24976562 -12.578125 22.86328125 C-14.1357026 22.34721638 -15.69297881 21.83024119 -17.25 21.3125 C-18.02730469 21.06822266 -18.80460938 20.82394531 -19.60546875 20.57226562 C-24.4003692 18.95347445 -27.33989235 17.55718443 -30 13 C-31.03281247 8.99025745 -30.4280072 5.80251351 -28.5 2.1875 C-19.98633199 -5.26195951 -9.83802112 -3.90729917 0 0 Z " fill="#054A84" transform="translate(193,6)"/>
<path d="M0 0 C0.66 0.99 1.32 1.98 2 3 C-1.465 5.97 -1.465 5.97 -5 9 C-5.66 8.34 -6.32 7.68 -7 7 C-10.82796895 4.4480207 -13.52208504 4.1297979 -18 5 C-21.7160027 6.93878402 -23.24257608 8.91145591 -24.5 12.8125 C-25.37767415 17.2505504 -24.29806494 20.0932896 -22 24 C-19.41999955 26.96222274 -18.05145998 26.99509905 -14.0625 27.375 C-10.28097142 27.26274683 -8.21436898 25.9643366 -5 24 C-1.49516857 24.9277495 0.03846676 27.05770013 2 30 C-3.28880025 34.80800023 -8.73090975 36.5015478 -15.89453125 36.23828125 C-23.50349166 35.37715586 -27.84217258 32.85956685 -32.6875 26.9375 C-36.09474095 21.90776337 -35.40978954 15.82210415 -35 10 C-33.27835074 4.53123175 -29.69125936 1.12750624 -25 -2 C-16.12711452 -5.54915419 -8.23949872 -4.57920096 0 0 Z " fill="#054A84" transform="translate(117,7)"/>
<path d="M0 0 C3.4375 1.3125 3.4375 1.3125 7 3 C7.33 3.99 7.66 4.98 8 6 C8.99 6 9.98 6 11 6 C11.33 5.01 11.66 4.02 12 3 C13.65 3 15.3 3 17 3 C17.33 3.99 17.66 4.98 18 6 C18.99 6 19.98 6 21 6 C21.66 5.01 22.32 4.02 23 3 C26.125 2.3125 26.125 2.3125 29 2 C29.0809313 4.60478883 29.14045434 7.20706653 29.1875 9.8125 C29.21263672 10.55048828 29.23777344 11.28847656 29.26367188 12.04882812 C29.33890547 17.59103655 29.33890547 17.59103655 27.48828125 19.82421875 C26.99714844 20.21222656 26.50601563 20.60023437 26 21 C26 21.99 26 22.98 26 24 C26.99 23.67 27.98 23.34 29 23 C29 27.62 29 32.24 29 37 C28.34 37 27.68 37 27 37 C26.01 34.69 25.02 32.38 24 30 C24.33 29.67 24.66 29.34 25 29 C24.01 28.34 23.02 27.68 22 27 C19.98777953 27.6288189 17.98723268 28.29618843 16 29 C15.01 28.67 14.02 28.34 13 28 C13 27.34 13 26.68 13 26 C12.34 26 11.68 26 11 26 C11 26.66 11 27.32 11 28 C10.34 27.67 9.68 27.34 9 27 C9 26.34 9 25.68 9 25 C9.66 25 10.32 25 11 25 C9.88145414 21.27385847 9.88145414 21.27385847 7 19 C4.98072489 19.60578253 2.97746603 20.26919734 1 21 C1 20.34 1 19.68 1 19 C0.01 19 -0.98 19 -2 19 C-2.33 15.04 -2.66 11.08 -3 7 C-1.68 6.67 -0.36 6.34 1 6 C1.33 5.01 1.66 4.02 2 3 C1.34 2.67 0.68 2.34 0 2 C0 1.34 0 0.68 0 0 Z " fill="#25427C" transform="translate(6,21)"/>
<path d="M0 0 C6 0 6 0 7.69091797 1.28515625 C8.12033691 1.87167969 8.54975586 2.45820312 8.9921875 3.0625 C9.70761719 4.00996094 9.70761719 4.00996094 10.4375 4.9765625 C10.911875 5.64429688 11.38625 6.31203125 11.875 7 C12.37257813 7.66773438 12.87015625 8.33546875 13.3828125 9.0234375 C14.60572459 10.66966531 15.80521139 12.33324863 17 14 C17.33 9.38 17.66 4.76 18 0 C20.31 0 22.62 0 25 0 C25 8.91 25 17.82 25 27 C18 27 18 27 15.12890625 24.375 C14.25165912 23.26689836 13.39644216 22.14104875 12.5625 21 C12.11712891 20.42765625 11.67175781 19.8553125 11.21289062 19.265625 C10.12246292 17.8586215 9.05848388 16.43118947 8 15 C7.67 18.96 7.34 22.92 7 27 C4.69 27 2.38 27 0 27 C0 18.09 0 9.18 0 0 Z " fill="#054A84" transform="translate(368,53)"/>
<path d="M0 0 C6 0 6 0 7.69091797 1.28515625 C8.12033691 1.87167969 8.54975586 2.45820312 8.9921875 3.0625 C9.70761719 4.00996094 9.70761719 4.00996094 10.4375 4.9765625 C10.911875 5.64429688 11.38625 6.31203125 11.875 7 C12.37257812 7.66773438 12.87015625 8.33546875 13.3828125 9.0234375 C14.60572459 10.66966531 15.80521139 12.33324863 17 14 C17.33 9.38 17.66 4.76 18 0 C20.31 0 22.62 0 25 0 C25 8.91 25 17.82 25 27 C18 27 18 27 15.12890625 24.375 C14.25165912 23.26689836 13.39644216 22.14104875 12.5625 21 C12.11712891 20.42765625 11.67175781 19.8553125 11.21289062 19.265625 C10.12246292 17.8586215 9.05848388 16.43118947 8 15 C7.67 18.96 7.34 22.92 7 27 C4.69 27 2.38 27 0 27 C0 18.09 0 9.18 0 0 Z " fill="#054A84" transform="translate(161,53)"/>
<path d="M0 0 C2.9375 1.1875 2.9375 1.1875 5 3 C5.763125 3.66 6.52625 4.32 7.3125 5 C9.89465508 9.59049792 9.99049183 13.86411642 9 19 C6.75263835 23.02975192 4.39346027 25.53551324 0 27 C-5.26721247 27.50439554 -9.65121655 27.62622089 -14.5 25.375 C-18.33748898 21.72938546 -19.81093617 18.7645957 -20.375 13.5 C-19.81093617 8.2354043 -18.33748898 5.27061454 -14.5 1.625 C-9.60283353 -0.64868443 -5.31410578 -0.66629461 0 0 Z M-11 7 C-13.09679403 9.69587803 -12.99510821 11.092944 -12.8125 14.5625 C-11.95035818 18.5699512 -11.95035818 18.5699512 -9 21 C-5.28287456 22.21210612 -3.67982064 22.32513161 -0.125 20.625 C2.54607129 17.32544134 2.72509074 15.28691412 2.4921875 11.12890625 C2.11226208 8.71991031 2.11226208 8.71991031 -0.25 6.4375 C-4.28691854 4.32729258 -7.28019886 4.52013257 -11 7 Z " fill="#054A84" transform="translate(355,53)"/>
<path d="M0 0 C2.9375 1.1875 2.9375 1.1875 5 3 C5.763125 3.66 6.52625 4.32 7.3125 5 C9.89465508 9.59049792 9.99049183 13.86411642 9 19 C6.75263835 23.02975192 4.39346027 25.53551324 0 27 C-5.26721247 27.50439554 -9.65121655 27.62622089 -14.5 25.375 C-18.33748898 21.72938546 -19.81093617 18.7645957 -20.375 13.5 C-19.81093617 8.2354043 -18.33748898 5.27061454 -14.5 1.625 C-9.60283353 -0.64868443 -5.31410578 -0.66629461 0 0 Z M-11 7 C-13.09679403 9.69587803 -12.99510821 11.092944 -12.8125 14.5625 C-11.95035818 18.5699512 -11.95035818 18.5699512 -9 21 C-5.28287456 22.21210612 -3.67982064 22.32513161 -0.125 20.625 C2.54607129 17.32544134 2.72509074 15.28691412 2.4921875 11.12890625 C2.11226208 8.71991031 2.11226208 8.71991031 -0.25 6.4375 C-4.28691854 4.32729258 -7.28019886 4.52013257 -11 7 Z " fill="#054A84" transform="translate(101,53)"/>
<path d="M0 0 C1.19882812 0.00483398 1.19882812 0.00483398 2.421875 0.00976562 C3.246875 0.01814453 4.071875 0.02652344 4.921875 0.03515625 C5.76234375 0.03966797 6.6028125 0.04417969 7.46875 0.04882812 C9.53648901 0.06057664 11.60419124 0.07851103 13.671875 0.09765625 C13.82527344 1.20238281 13.97867188 2.30710938 14.13671875 3.4453125 C14.52292919 6.08112826 14.9564421 8.54253876 15.671875 11.09765625 C16.991875 10.43765625 18.311875 9.77765625 19.671875 9.09765625 C18.681875 8.43765625 17.691875 7.77765625 16.671875 7.09765625 C17.331875 5.11765625 17.991875 3.13765625 18.671875 1.09765625 C23.08249636 0.07193035 25.59818076 0.06080913 29.671875 2.09765625 C29.011875 3.41765625 28.351875 4.73765625 27.671875 6.09765625 C28.331875 6.09765625 28.991875 6.09765625 29.671875 6.09765625 C30.166875 7.58265625 30.166875 7.58265625 30.671875 9.09765625 C27.41822401 12.72315306 25.5112043 14.46090239 20.671875 15.09765625 C19.681875 15.75765625 18.691875 16.41765625 17.671875 17.09765625 C15.484375 16.72265625 15.484375 16.72265625 13.671875 16.09765625 C13.671875 15.43765625 13.671875 14.77765625 13.671875 14.09765625 C10.371875 14.09765625 7.071875 14.09765625 3.671875 14.09765625 C3.341875 14.75765625 3.011875 15.41765625 2.671875 16.09765625 C3.991875 16.09765625 5.311875 16.09765625 6.671875 16.09765625 C6.671875 16.75765625 6.671875 17.41765625 6.671875 18.09765625 C5.021875 17.76765625 3.371875 17.43765625 1.671875 17.09765625 C1.341875 15.77765625 1.011875 14.45765625 0.671875 13.09765625 C1.661875 12.76765625 2.651875 12.43765625 3.671875 12.09765625 C3.011875 11.10765625 2.351875 10.11765625 1.671875 9.09765625 C1.671875 8.10765625 1.671875 7.11765625 1.671875 6.09765625 C2.331875 6.09765625 2.991875 6.09765625 3.671875 6.09765625 C3.671875 5.43765625 3.671875 4.77765625 3.671875 4.09765625 C3.011875 3.76765625 2.351875 3.43765625 1.671875 3.09765625 C1.341875 3.75765625 1.011875 4.41765625 0.671875 5.09765625 C0.341875 4.43765625 0.011875 3.77765625 -0.328125 3.09765625 C-0.328125 4.19078125 -0.328125 5.28390625 -0.328125 6.41015625 C-0.328125 8.63932292 -0.328125 10.86848958 -0.328125 13.09765625 C-6.55492912 14.41486481 -6.55492912 14.41486481 -9.765625 13.09765625 C-11.328125 11.09765625 -11.328125 11.09765625 -11.765625 7.59765625 C-11.328125 4.09765625 -11.328125 4.09765625 -10.078125 2.22265625 C-6.89898568 0.17892383 -3.71120306 -0.02650859 0 0 Z M9.671875 2.09765625 C9.341875 2.75765625 9.011875 3.41765625 8.671875 4.09765625 C9.661875 4.42765625 10.651875 4.75765625 11.671875 5.09765625 C11.671875 4.10765625 11.671875 3.11765625 11.671875 2.09765625 C11.011875 2.09765625 10.351875 2.09765625 9.671875 2.09765625 Z M20.671875 2.09765625 C20.671875 2.75765625 20.671875 3.41765625 20.671875 4.09765625 C21.991875 3.76765625 23.311875 3.43765625 24.671875 3.09765625 C23.351875 2.76765625 22.031875 2.43765625 20.671875 2.09765625 Z M-4.328125 3.09765625 C-4.4725 4.21140625 -4.616875 5.32515625 -4.765625 6.47265625 C-5.328125 10.09765625 -5.328125 10.09765625 -6.328125 12.09765625 C-5.338125 12.09765625 -4.348125 12.09765625 -3.328125 12.09765625 C-3.328125 9.12765625 -3.328125 6.15765625 -3.328125 3.09765625 C-3.658125 3.09765625 -3.988125 3.09765625 -4.328125 3.09765625 Z M-8.328125 5.09765625 C-8.658125 5.75765625 -8.988125 6.41765625 -9.328125 7.09765625 C-8.338125 8.58265625 -8.338125 8.58265625 -7.328125 10.09765625 C-7.328125 8.44765625 -7.328125 6.79765625 -7.328125 5.09765625 C-7.658125 5.09765625 -7.988125 5.09765625 -8.328125 5.09765625 Z M17.671875 12.09765625 C16.681875 12.59265625 16.681875 12.59265625 15.671875 13.09765625 C15.671875 13.75765625 15.671875 14.41765625 15.671875 15.09765625 C16.991875 14.43765625 18.311875 13.77765625 19.671875 13.09765625 C19.011875 12.76765625 18.351875 12.43765625 17.671875 12.09765625 Z " fill="#183884" transform="translate(26.328125,0.90234375)"/>
<path d="M0 0 C2.31 0 4.62 0 7 0 C7.06058594 1.19238281 7.12117188 2.38476562 7.18359375 3.61328125 C7.26801149 5.17969925 7.35265887 6.74610488 7.4375 8.3125 C7.47681641 9.09818359 7.51613281 9.88386719 7.55664062 10.69335938 C7.59853516 11.45068359 7.64042969 12.20800781 7.68359375 12.98828125 C7.72025146 13.68477783 7.75690918 14.38127441 7.79467773 15.09887695 C7.95581153 17.2216572 7.95581153 17.2216572 9 20 C11.90073181 20.67801034 11.90073181 20.67801034 15 21 C17.3968665 18.6031335 17.28281133 17.92971686 17.4140625 14.6484375 C17.45273437 13.79765625 17.49140625 12.946875 17.53125 12.0703125 C17.5621875 11.18085937 17.593125 10.29140625 17.625 9.375 C17.66367187 8.4778125 17.70234375 7.580625 17.7421875 6.65625 C17.83659357 4.4377073 17.92216748 2.21917597 18 0 C20.31 0 22.62 0 25 0 C25.08115993 3.06303578 25.14057409 6.12390815 25.1875 9.1875 C25.21263672 10.05181641 25.23777344 10.91613281 25.26367188 11.80664062 C25.31985702 16.6947481 25.27688877 20.08982486 22 24 C18.9573561 26.93972148 16.7515071 27.43169 12.5625 27.4375 C8.93653739 27.32630381 7.19003156 27.10083307 3.9375 25.375 C-0.33060668 20.1431273 -0.26660554 14.55171289 -0.125 8.125 C-0.11597656 7.34125 -0.10695313 6.5575 -0.09765625 5.75 C-0.07428063 3.83319945 -0.03841653 1.91655809 0 0 Z " fill="#054A84" transform="translate(272,53)"/>
<path d="M0 0 C0.969375 0.165 1.93875 0.33 2.9375 0.5 C9.61638775 1.44068842 16.11018986 1.13573375 22.76171875 0.12109375 C25 0 25 0 27.77734375 0.46875 C31.49880729 1.08222763 35.11791102 1.10982767 38.875 1.0625 C39.56335937 1.05798828 40.25171875 1.05347656 40.9609375 1.04882812 C42.64066335 1.03716336 44.32034375 1.01923271 46 1 C43.08175756 2.66674321 41.02405621 3.2432008 37.671875 3.1953125 C36.87265625 3.18886719 36.0734375 3.18242187 35.25 3.17578125 C34.425 3.15902344 33.6 3.14226563 32.75 3.125 C31.90953125 3.11597656 31.0690625 3.10695313 30.203125 3.09765625 C28.13529396 3.07415817 26.06761005 3.03828908 24 3 C24.33 6.96 24.66 10.92 25 15 C25.9075 15.061875 26.815 15.12375 27.75 15.1875 C31 16 31 16 33.375 17.9375 C35.7039017 22.32658397 36.03100839 26.13953189 35 31 C33.41792454 33.66482478 31.66885673 35.42493701 29 37 C26.125 37.375 26.125 37.375 24 37 C24 37.66 24 38.32 24 39 C23.34 39 22.68 39 22 39 C21.67 39.99 21.34 40.98 21 42 C20.34 42 19.68 42 19 42 C18.34 40.68 17.68 39.36 17 38 C17.99 38 18.98 38 20 38 C20.33 37.34 20.66 36.68 21 36 C21 36.66 21 37.32 21 38 C21.66 38 22.32 38 23 38 C22.505 31.565 22.505 31.565 22 25 C21.34 25 20.68 25 20 25 C19.67 23.68 19.34 22.36 19 21 C19.99 20.34 20.98 19.68 22 19 C22.38394667 16.22737745 22.60342248 13.65676472 22.6875 10.875 C22.72166016 10.12089844 22.75582031 9.36679687 22.79101562 8.58984375 C22.87354278 6.72708799 22.93844711 4.86356674 23 3 C18.17557816 4.26946514 18.17557816 4.26946514 15 8 C14.01 7.67 13.02 7.34 12 7 C11.67 6.34 11.34 5.68 11 5 C9.35 5 7.7 5 6 5 C5.67 5.66 5.34 6.32 5 7 C4.01 7 3.02 7 2 7 C2 5.35 2 3.7 2 2 C1.34 2 0.68 2 0 2 C0 1.34 0 0.68 0 0 Z " fill="#F5EE05" transform="translate(12,20)"/>
<path d="M0 0 C2.86724686 0.57344937 3.8614515 0.8614515 6 3 C6.99 3.66 7.98 4.32 9 5 C9.66 4.67 10.32 4.34 11 4 C20 13 20 13 20.125 16.625 C20.08375 17.73875 20.0425 18.8525 20 20 C21.65 20.33 23.3 20.66 25 21 C24.071875 21.5878125 24.071875 21.5878125 23.125 22.1875 C20.67503632 24.27717491 19.98120002 25.97463327 19 29 C18.01 29 17.02 29 16 29 C16.33 29.99 16.66 30.98 17 32 C15.43284826 33.64550933 13.89067785 35.08110998 12.0625 36.4375 C9.83520645 38.1248436 7.93875026 39.99200866 6 42 C6 41.34 6 40.68 6 40 C5.34 40 4.68 40 4 40 C4 39.34 4 38.68 4 38 C1.83125748 38.50603992 0.00032373 38.99983813 -2 40 C-2 38.68 -2 37.36 -2 36 C-1.34 36 -0.68 36 0 36 C0 35.34 0 34.68 0 34 C0.9075 33.7525 1.815 33.505 2.75 33.25 C6.34192535 31.86849025 7.90144747 31.22854236 10 28 C10.64739556 23.63553555 10.97554826 19.64121648 8.671875 15.765625 C6.41498011 13.38217526 4.12510032 12.83336009 1 12 C0.01751476 7.9472484 -0.08159574 4.16138263 0 0 Z " fill="#74834F" transform="translate(36,23)"/>
<path d="M0 0 C1.43472656 -0.02126953 1.43472656 -0.02126953 2.8984375 -0.04296875 C5.65510017 0.19004428 7.27447395 0.77829836 9.625 2.1875 C9.295 3.8375 8.965 5.4875 8.625 7.1875 C3.18 6.6925 3.18 6.6925 -2.375 6.1875 C-2.705 7.1775 -3.035 8.1675 -3.375 9.1875 C-2.53195312 9.45304687 -1.68890625 9.71859375 -0.8203125 9.9921875 C0.82324219 10.52199219 0.82324219 10.52199219 2.5 11.0625 C3.59054687 11.41054687 4.68109375 11.75859375 5.8046875 12.1171875 C8.625 13.1875 8.625 13.1875 10.625 15.1875 C10.96446509 18.85372297 11.11505781 21.30072872 9.3125 24.5625 C6.30856348 27.45517961 3.22024529 27.34780654 -0.75 27.375 C-2.15378906 27.39626953 -2.15378906 27.39626953 -3.5859375 27.41796875 C-6.53618154 27.17418108 -8.69864112 26.41862508 -11.375 25.1875 C-11 22.75 -11 22.75 -10.375 20.1875 C-9.715 19.8575 -9.055 19.5275 -8.375 19.1875 C-7.653125 19.496875 -6.93125 19.80625 -6.1875 20.125 C-2.7881098 21.40921408 0.02056356 21.32885045 3.625 21.1875 C3.295 20.1975 2.965 19.2075 2.625 18.1875 C0.42479139 17.30536949 0.42479139 17.30536949 -2.1875 16.75 C-9.08120018 14.83672699 -9.08120018 14.83672699 -11.375 11.1875 C-11.875 8.1875 -11.875 8.1875 -11.375 5.1875 C-7.87036704 0.86511935 -5.43033041 0.03639632 0 0 Z " fill="#054A84" transform="translate(408.375,52.8125)"/>
<path d="M0 0 C1.43472656 -0.02126953 1.43472656 -0.02126953 2.8984375 -0.04296875 C5.65510017 0.19004428 7.27447395 0.77829836 9.625 2.1875 C9.295 3.8375 8.965 5.4875 8.625 7.1875 C3.18 6.6925 3.18 6.6925 -2.375 6.1875 C-2.705 7.1775 -3.035 8.1675 -3.375 9.1875 C-2.53195313 9.45304687 -1.68890625 9.71859375 -0.8203125 9.9921875 C0.82324219 10.52199219 0.82324219 10.52199219 2.5 11.0625 C3.59054688 11.41054687 4.68109375 11.75859375 5.8046875 12.1171875 C8.625 13.1875 8.625 13.1875 10.625 15.1875 C10.96446509 18.85372297 11.11505781 21.30072872 9.3125 24.5625 C6.30856348 27.45517961 3.22024529 27.34780654 -0.75 27.375 C-2.15378906 27.39626953 -2.15378906 27.39626953 -3.5859375 27.41796875 C-6.53618154 27.17418108 -8.69864112 26.41862508 -11.375 25.1875 C-11 22.75 -11 22.75 -10.375 20.1875 C-9.715 19.8575 -9.055 19.5275 -8.375 19.1875 C-7.653125 19.496875 -6.93125 19.80625 -6.1875 20.125 C-2.7881098 21.40921408 0.02056356 21.32885045 3.625 21.1875 C3.295 20.1975 2.965 19.2075 2.625 18.1875 C0.42479139 17.30536949 0.42479139 17.30536949 -2.1875 16.75 C-9.08120018 14.83672699 -9.08120018 14.83672699 -11.375 11.1875 C-11.875 8.1875 -11.875 8.1875 -11.375 5.1875 C-7.87036704 0.86511935 -5.43033041 0.03639632 0 0 Z " fill="#054A84" transform="translate(200.375,52.8125)"/>
<path d="M0 0 C0.38408795 9.48839486 -0.44596137 17.84802826 -3 27 C-3.99 26.67 -4.98 26.34 -6 26 C-5.67 25.67 -5.34 25.34 -5 25 C-8.3 24.34 -11.6 23.68 -15 23 C-14.7525 21.9275 -14.505 20.855 -14.25 19.75 C-13.58677116 16.03652315 -13.58677116 16.03652315 -15.6875 13.8125 C-16.450625 13.214375 -17.21375 12.61625 -18 12 C-19.33333333 10.66666667 -20.66666667 9.33333333 -22 8 C-22.66 8.66 -23.32 9.32 -24 10 C-25.95216435 8.04783565 -26.84826645 6.46800047 -28 4 C-26.96101563 3.96261719 -25.92203125 3.92523437 -24.8515625 3.88671875 C-17.51808983 3.56201856 -10.80516802 3.09539003 -3.8203125 0.62109375 C-2 0 -2 0 0 0 Z " fill="#1B3B82" transform="translate(68,20)"/>
<path d="M0 0 C6.6 0 13.2 0 20 0 C20 1.65 20 3.3 20 5 C15.71 5 11.42 5 7 5 C7 7.31 7 9.62 7 12 C10.96 12 14.92 12 19 12 C19 13.65 19 15.3 19 17 C15.04 17 11.08 17 7 17 C7 20.3 7 23.6 7 27 C4.69 27 2.38 27 0 27 C0 18.09 0 9.18 0 0 Z " fill="#054A84" transform="translate(115,53)"/>
<path d="M0 0 C0.33 0.66 0.66 1.32 1 2 C2.0725 2.12375 3.145 2.2475 4.25 2.375 C8.58979406 3.09829901 10.06891906 3.7432434 13 7 C13.61316829 10.10496384 13.47242574 13.10069305 13.3125 16.25 C13.28994141 17.09046875 13.26738281 17.9309375 13.24414062 18.796875 C13.18537714 20.86534964 13.09569885 22.93290488 13 25 C12.34 25 11.68 25 11 25 C11.33 23.02 11.66 21.04 12 19 C11.071875 19.165 10.14375 19.33 9.1875 19.5 C4.88924925 20.17423541 2.89677411 20.23772129 -0.625 17.75 C-1.23601563 17.33234375 -1.84703125 16.9146875 -2.4765625 16.484375 C-4.30377773 14.70401144 -4.43642643 13.43720852 -5 11 C-6.64821244 9.96986723 -8.31503702 8.96885372 -10 8 C-10.33 7.01 -10.66 6.02 -11 5 C-10.21625 4.896875 -9.4325 4.79375 -8.625 4.6875 C-5.66954819 4.22404978 -5.66954819 4.22404978 -4 1 C-1.875 0.3125 -1.875 0.3125 0 0 Z " fill="#2A4679" transform="translate(22,56)"/>
<path d="M0 0 C0.99 0 1.98 0 3 0 C3.66 1.65 4.32 3.3 5 5 C5.33 4.34 5.66 3.68 6 3 C19.53 3 33.06 3 47 3 C47 2.01 47 1.02 47 0 C47.99 0 48.98 0 50 0 C50 2.97 50 5.94 50 9 C45.71 9 41.42 9 37 9 C37 8.34 37 7.68 37 7 C36.34 7 35.68 7 35 7 C35 7.66 35 8.32 35 9 C34.01 9 33.02 9 32 9 C32 8.34 32 7.68 32 7 C31.34 7 30.68 7 30 7 C30 7.66 30 8.32 30 9 C28.02 9 26.04 9 24 9 C23.67 8.34 23.34 7.68 23 7 C22.67 7.66 22.34 8.32 22 9 C19.69 9 17.38 9 15 9 C15 9.99 15 10.98 15 12 C14.34 12 13.68 12 13 12 C12.67 11.01 12.34 10.02 12 9 C10.68 9 9.36 9 8 9 C8 9.99 8 10.98 8 12 C7.34 12 6.68 12 6 12 C6 11.01 6 10.02 6 9 C5.01 9 4.02 9 3 9 C1.3125 7.5 1.3125 7.5 0 6 C0 6.99 0 7.98 0 9 C-0.99 9 -1.98 9 -3 9 C-2.01 6.03 -1.02 3.06 0 0 Z M46 4 C45.67 4.99 45.34 5.98 45 7 C45.66 7 46.32 7 47 7 C46.67 6.01 46.34 5.02 46 4 Z M8 5 C8 5.66 8 6.32 8 7 C8.66 7 9.32 7 10 7 C10 6.34 10 5.68 10 5 C9.34 5 8.68 5 8 5 Z M15 5 C15 5.66 15 6.32 15 7 C15.66 7 16.32 7 17 7 C17 6.34 17 5.68 17 5 C16.34 5 15.68 5 15 5 Z M26 5 C26 5.66 26 6.32 26 7 C26.66 7 27.32 7 28 7 C28 6.34 28 5.68 28 5 C27.34 5 26.68 5 26 5 Z M39 6 C39.66 6.66 40.32 7.32 41 8 C41.66 7.34 42.32 6.68 43 6 C41.68 6 40.36 6 39 6 Z " fill="#4C4B55" transform="translate(5,88)"/>
<path d="M0 0 C7.59 0 15.18 0 23 0 C23 1.65 23 3.3 23 5 C20.36 5 17.72 5 15 5 C15 12.26 15 19.52 15 27 C12.69 27 10.38 27 8 27 C8 19.74 8 12.48 8 5 C5.36 5 2.72 5 0 5 C0 3.35 0 1.7 0 0 Z " fill="#054A84" transform="translate(299,53)"/>
<path d="M0 0 C7.59 0 15.18 0 23 0 C23 1.65 23 3.3 23 5 C20.36 5 17.72 5 15 5 C15 12.26 15 19.52 15 27 C12.69 27 10.38 27 8 27 C8 19.74 8 12.48 8 5 C5.36 5 2.72 5 0 5 C0 3.35 0 1.7 0 0 Z " fill="#054A84" transform="translate(247,53)"/>
<path d="M0 0 C7.59 0 15.18 0 23 0 C23 1.65 23 3.3 23 5 C20.36 5 17.72 5 15 5 C15 12.26 15 19.52 15 27 C12.69 27 10.38 27 8 27 C8 19.74 8 12.48 8 5 C5.36 5 2.72 5 0 5 C0 3.35 0 1.7 0 0 Z " fill="#054A84" transform="translate(212,53)"/>
<path d="M0 0 C0.66 0 1.32 0 2 0 C2 1.32 2 2.64 2 4 C2.99 4 3.98 4 5 4 C5 2.68 5 1.36 5 0 C5.99 0 6.98 0 8 0 C8 0.99 8 1.98 8 3 C8.91523438 3 9.83046875 3 10.7734375 3 C14.84895833 3 18.92447917 3 23 3 C24.01332397 2.99214478 24.01332397 2.99214478 25.04711914 2.98413086 C27.7189016 2.96341937 30.39066911 2.95042524 33.0625 2.9375 C34.46725586 2.92493164 34.46725586 2.92493164 35.90039062 2.91210938 C36.79048828 2.90888672 37.68058594 2.90566406 38.59765625 2.90234375 C39.82754272 2.89448853 39.82754272 2.89448853 41.08227539 2.88647461 C43 3 43 3 44 4 C44.04063832 5.66617115 44.042721 7.33388095 44 9 C40.85418577 9.02888514 37.70840531 9.04675923 34.5625 9.0625 C33.21575195 9.07506836 33.21575195 9.07506836 31.84179688 9.08789062 C30.56079102 9.09272461 30.56079102 9.09272461 29.25390625 9.09765625 C28.46314697 9.10289307 27.6723877 9.10812988 26.85766602 9.11352539 C25 9 25 9 24 8 C23.34 9.32 22.68 10.64 22 12 C20.68 11.67 19.36 11.34 18 11 C18.66 11 19.32 11 20 11 C19.67 8.69 19.34 6.38 19 4 C18.34 4 17.68 4 17 4 C17 5.65 17 7.3 17 9 C13.04 9 9.08 9 5 9 C5 7.68 5 6.36 5 5 C4.01 5 3.02 5 2 5 C2 6.32 2 7.64 2 9 C1.34 9 0.68 9 0 9 C0 6.03 0 3.06 0 0 Z " fill="#4C4B55" transform="translate(376,88)"/>
<path d="M0 0 C1.32 0.66 2.64 1.32 4 2 C4 2.66 4 3.32 4 4 C5.32 4.33 6.64 4.66 8 5 C8.68707555 7.49064888 9 9.37886292 9 12 C9.66 12 10.32 12 11 12 C11.33 11.34 11.66 10.68 12 10 C13.98 10 15.96 10 18 10 C18 10.99 18 11.98 18 13 C18.99 12.67 19.98 12.34 21 12 C21 16.62 21 21.24 21 26 C20.34 26 19.68 26 19 26 C17.515 22.535 17.515 22.535 16 19 C16.33 18.67 16.66 18.34 17 18 C16.01 17.34 15.02 16.68 14 16 C11.98777953 16.6288189 9.98723268 17.29618843 8 18 C7.01 17.67 6.02 17.34 5 17 C5 16.34 5 15.68 5 15 C4.34 15 3.68 15 3 15 C3 15.66 3 16.32 3 17 C2.34 16.67 1.68 16.34 1 16 C1 15.34 1 14.68 1 14 C1.66 14 2.32 14 3 14 C1.88145414 10.27385847 1.88145414 10.27385847 -1 8 C-3.01927511 8.60578253 -5.02253397 9.26919734 -7 10 C-7 9.34 -7 8.68 -7 8 C-7.66 8 -8.32 8 -9 8 C-8.67 6.68 -8.34 5.36 -8 4 C-7.360625 3.855625 -6.72125 3.71125 -6.0625 3.5625 C-4.02454854 3.18992819 -4.02454854 3.18992819 -3 2 C-2.01 1.34 -1.02 0.68 0 0 Z " fill="#1B3A82" transform="translate(14,32)"/>
<path d="M0 0 C1.98 0.33 3.96 0.66 6 1 C6 1.66 6 2.32 6 3 C9.05263664 3.98120464 10.94736336 3.98120464 14 3 C13.34 4.65 12.68 6.3 12 8 C12.99 8 13.98 8 15 8 C14.67 8.99 14.34 9.98 14 11 C11.69 11.33 9.38 11.66 7 12 C7.33 10.68 7.66 9.36 8 8 C6.63106761 7.94729537 6.63106761 7.94729537 4 9 C1 9 -2 9 -5 9 C-5 8.01 -5 7.02 -5 6 C-5.33 5.67 -5.66 5.34 -6 5 C-6.33 6.32 -6.66 7.64 -7 9 C-7.66 9 -8.32 9 -9 9 C-9 8.01 -9 7.02 -9 6 C-10.32 6 -11.64 6 -13 6 C-12.01 6.33 -11.02 6.66 -10 7 C-10 7.66 -10 8.32 -10 9 C-17 9 -17 9 -19.0625 8.4375 C-19.701875 8.293125 -20.34125 8.14875 -21 8 C-21.33 8.33 -21.66 8.66 -22 9 C-23.66617115 9.04063832 -25.33388095 9.042721 -27 9 C-27 7.68 -27 6.36 -27 5 C-27.66 5 -28.32 5 -29 5 C-29 6.32 -29 7.64 -29 9 C-29.66 9 -30.32 9 -31 9 C-31 7.02 -31 5.04 -31 3 C-30.07102905 3.00785522 -30.07102905 3.00785522 -29.12329102 3.01586914 C-26.26970467 3.03688073 -23.41613469 3.04973614 -20.5625 3.0625 C-19.10166992 3.07506836 -19.10166992 3.07506836 -17.61132812 3.08789062 C-11.65221031 3.10782078 -5.90932317 2.77609518 0 2 C0 1.34 0 0.68 0 0 Z M-3 4 C-1.515 4.99 -1.515 4.99 0 6 C0 5.34 0 4.68 0 4 C-0.99 4 -1.98 4 -3 4 Z " fill="#4C4B55" transform="translate(313,88)"/>
<path d="M0 0 C1.65 0.66 3.3 1.32 5 2 C5 2.66 5 3.32 5 4 C5.66 4.66 6.32 5.32 7 6 C6.01 7.485 6.01 7.485 5 9 C5 9.99 5 10.98 5 12 C4.1646875 12.12375 4.1646875 12.12375 3.3125 12.25 C-0.96840948 13.63840308 -3.54684877 16.32027316 -6 20 C-6.66 20.33 -7.32 20.66 -8 21 C-8.66 21.99 -9.32 22.98 -10 24 C-11.32 23.67 -12.64 23.34 -14 23 C-14 25.64 -14 28.28 -14 31 C-14.66 31 -15.32 31 -16 31 C-16 24.07 -16 17.14 -16 10 C-14.68 10.33 -13.36 10.66 -12 11 C-12 11.66 -12 12.32 -12 13 C-9.04409629 13.3292523 -9.04409629 13.3292523 -7.5 11.6875 C-7.005 11.130625 -6.51 10.57375 -6 10 C-4.32614543 8.25919124 -3.16941862 7.08470931 -1 6 C-1.020625 5.195625 -1.04125 4.39125 -1.0625 3.5625 C-1 1 -1 1 0 0 Z " fill="#3E576E" transform="translate(52,50)"/>
<path d="M0 0 C2.31 0 4.62 0 7 0 C7 8.91 7 17.82 7 27 C4.69 27 2.38 27 0 27 C0 18.09 0 9.18 0 0 Z " fill="#054A84" transform="translate(325,53)"/>
<path d="M0 0 C2.31 0 4.62 0 7 0 C7 8.91 7 17.82 7 27 C4.69 27 2.38 27 0 27 C0 18.09 0 9.18 0 0 Z " fill="#054A84" transform="translate(238,53)"/>
<path d="M0 0 C2.31 0 4.62 0 7 0 C7 8.91 7 17.82 7 27 C4.69 27 2.38 27 0 27 C0 18.09 0 9.18 0 0 Z " fill="#054A84" transform="translate(149,53)"/>
<path d="M0 0 C0.66 0 1.32 0 2 0 C2 0.99 2 1.98 2 3 C5.3 3 8.6 3 12 3 C12 2.34 12 1.68 12 1 C12.99 1 13.98 1 15 1 C15.66 1.66 16.32 2.32 17 3 C19.21072977 3.24253813 19.21072977 3.24253813 21.625 3.125 C22.44226563 3.10695313 23.25953125 3.08890625 24.1015625 3.0703125 C24.72804687 3.04710938 25.35453125 3.02390625 26 3 C26 2.01 26 1.02 26 0 C26.99 0 27.98 0 29 0 C29 2.97 29 5.94 29 9 C19.43 9 9.86 9 0 9 C0 6.03 0 3.06 0 0 Z M15 4 C16 8 16 8 16 8 Z M25 4 C26 8 26 8 26 8 Z M18 6 C18.66 6.66 19.32 7.32 20 8 C20.66 7.34 21.32 6.68 22 6 C20.68 6 19.36 6 18 6 Z " fill="#4C4B55" transform="translate(204,88)"/>
<path d="M0 0 C0.99 0 1.98 0 3 0 C3.33 0.66 3.66 1.32 4 2 C4.33 1.34 4.66 0.68 5 0 C5.639375 0.185625 6.27875 0.37125 6.9375 0.5625 C7.9584375 0.7790625 7.9584375 0.7790625 9 1 C9.33 0.67 9.66 0.34 10 0 C11.34267413 -0.08631874 12.68974322 -0.10706473 14.03515625 -0.09765625 C14.84404297 -0.09443359 15.65292969 -0.09121094 16.48632812 -0.08789062 C17.33646484 -0.07951172 18.18660156 -0.07113281 19.0625 -0.0625 C19.91650391 -0.05798828 20.77050781 -0.05347656 21.65039062 -0.04882812 C23.76695663 -0.03700373 25.88348685 -0.01906769 28 0 C27.01 0.33 26.02 0.66 25 1 C25 1.99 25 2.98 25 4 C25.99 4.33 26.98 4.66 28 5 C27.01 5 26.02 5 25 5 C25 5.99 25 6.98 25 8 C26.98 8 28.96 8 31 8 C30.67 8.99 30.34 9.98 30 11 C29.34 11 28.68 11 28 11 C28 10.34 28 9.68 28 9 C26.35 9 24.7 9 23 9 C23 6.36 23 3.72 23 1 C22.01 1 21.02 1 20 1 C20 3.64 20 6.28 20 9 C19.34 9 18.68 9 18 9 C18 6.36 18 3.72 18 1 C16.02 1.66 14.04 2.32 12 3 C12.33 4.32 12.66 5.64 13 7 C13.99 7 14.98 7 16 7 C16 7.66 16 8.32 16 9 C13.33333333 9 10.66666667 9 8 9 C7.195625 9.061875 6.39125 9.12375 5.5625 9.1875 C3 9 3 9 1.1875 7.5 C0.795625 7.005 0.40375 6.51 0 6 C0 6.99 0 7.98 0 9 C-0.99 9 -1.98 9 -3 9 C-2.01 6.03 -1.02 3.06 0 0 Z " fill="#4C4B55" transform="translate(77,88)"/>
<path d="M0 0 C2.86724686 0.57344937 3.8614515 0.8614515 6 3 C6.99 3.66 7.98 4.32 9 5 C9.66 4.67 10.32 4.34 11 4 C20 13 20 13 20.125 16.625 C20.08375 17.73875 20.0425 18.8525 20 20 C21.65 20.33 23.3 20.66 25 21 C23.3125 22.625 23.3125 22.625 21 24 C18.375 23.5625 18.375 23.5625 16 22 C15.71125 21.113125 15.4225 20.22625 15.125 19.3125 C13.57722753 14.75516996 10.98712654 11.70761388 7 9 C3.64593488 8.87389103 3.64593488 8.87389103 1 10 C-0.1577506 6.52674819 -0.06866652 3.63932552 0 0 Z " fill="#6B7C54" transform="translate(36,23)"/>
<path d="M0 0 C1.32 0.33 2.64 0.66 4 1 C6.18703385 0.62092718 6.18703385 0.62092718 8 0 C8.33 0.99 8.66 1.98 9 3 C13.95 3 18.9 3 24 3 C23.34 4.98 22.68 6.96 22 9 C20.02 9 18.04 9 16 9 C15.67 8.01 15.34 7.02 15 6 C14.67 6.99 14.34 7.98 14 9 C12.54257537 9.08096803 11.08387193 9.13917774 9.625 9.1875 C8.81289062 9.22230469 8.00078125 9.25710937 7.1640625 9.29296875 C6.44992188 9.19628906 5.73578125 9.09960938 5 9 C4.34 8.01 3.68 7.02 3 6 C2.67 6.99 2.34 7.98 2 9 C1.34 9 0.68 9 0 9 C0 6.03 0 3.06 0 0 Z " fill="#4C4B55" transform="translate(112,88)"/>
<path d="M0 0 C1.32 0.99 2.64 1.98 4 3 C3.67 3.66 3.34 4.32 3 5 C3.556875 4.360625 4.11375 3.72125 4.6875 3.0625 C7.22066561 0.80319013 8.68341424 0.36850953 12 0 C12 0.66 12 1.32 12 2 C12.99 2.33 13.98 2.66 15 3 C14.67 5.64 14.34 8.28 14 11 C11.69 11.33 9.38 11.66 7 12 C6.67 12.99 6.34 13.98 6 15 C5.01 15 4.02 15 3 15 C2.67 13.68 2.34 12.36 2 11 C2.66 11 3.32 11 4 11 C3.20882096 9.00016466 3.20882096 9.00016466 2 7 C1.01 6.67 0.02 6.34 -1 6 C-2.1875 3.9375 -2.1875 3.9375 -3 2 C-2.01 2 -1.02 2 0 2 C0 1.34 0 0.68 0 0 Z " fill="#23417D" transform="translate(19,30)"/>
<path d="M0 0 C0.66 0 1.32 0 2 0 C2 0.99 2 1.98 2 3 C3.65 3 5.3 3 7 3 C7 2.34 7 1.68 7 1 C7.66 1 8.32 1 9 1 C9 1.66 9 2.32 9 3 C11.31 3 13.62 3 16 3 C16.33 2.01 16.66 1.02 17 0 C17.66 0 18.32 0 19 0 C19.33 0.99 19.66 1.98 20 3 C20.99 3.33 21.98 3.66 23 4 C22.67 4.99 22.34 5.98 22 7 C23.32 7.33 24.64 7.66 26 8 C25.67 8.99 25.34 9.98 25 11 C24.34 11 23.68 11 23 11 C23 10.34 23 9.68 23 9 C16.73 9 10.46 9 4 9 C4 7.68 4 6.36 4 5 C3.34 5 2.68 5 2 5 C2 6.32 2 7.64 2 9 C1.34 9 0.68 9 0 9 C0 6.03 0 3.06 0 0 Z M9 4 C9.33 4.99 9.66 5.98 10 7 C10.33 6.01 10.66 5.02 11 4 C10.34 4 9.68 4 9 4 Z " fill="#4C4B55" transform="translate(346,88)"/>
<path d="M0 0 C0 5.28 0 10.56 0 16 C-0.66 16.33 -1.32 16.66 -2 17 C-1.67 15.02 -1.34 13.04 -1 11 C-1.66 10.67 -2.32 10.34 -3 10 C-3.66 9.34 -4.32 8.68 -5 8 C-5.99 8.495 -5.99 8.495 -7 9 C-7.66 8.67 -8.32 8.34 -9 8 C-9.66 9.32 -10.32 10.64 -11 12 C-11.66 12 -12.32 12 -13 12 C-13.66666667 10.66666667 -14.33333333 9.33333333 -15 8 C-15.37125 7.319375 -15.7425 6.63875 -16.125 5.9375 C-17 4 -17 4 -17 1 C-15.35 1 -13.7 1 -12 1 C-11.67 1.99 -11.34 2.98 -11 4 C-10.01 4 -9.02 4 -8 4 C-7.34 3.01 -6.68 2.02 -6 1 C-3 0 -3 0 0 0 Z " fill="#203E7F" transform="translate(35,23)"/>
<path d="M0 0 C3.96 0 7.92 0 12 0 C12 0.66 12 1.32 12 2 C12.99 2 13.98 2 15 2 C15.103125 2.5775 15.20625 3.155 15.3125 3.75 C16.11649921 6.38127015 17.13067515 7.98688093 19 10 C19.99 10 20.98 10 22 10 C22 10.66 22 11.32 22 12 C21.01 12.66 20.02 13.32 19 14 C20.83333333 17.16666667 20.83333333 17.16666667 24 19 C16.375 20.25 16.375 20.25 13 18 C13.165 17.21625 13.33 16.4325 13.5 15.625 C14.0623707 13.11791961 14.0623707 13.11791961 14 11 C12.68946944 9.97029741 11.35113205 8.97581759 10 8 C8.64802142 6.68557638 7.30973998 5.3565164 6 4 C5.34 4.66 4.68 5.32 4 6 C2 4 2 4 0 0 Z " fill="#395370" transform="translate(40,24)"/>
<path d="M0 0 C4.19162145 0.95264124 5.7207791 1.63260408 8.375 5.125 C8.91125 6.07375 9.4475 7.0225 10 8 C9.67 8.66 9.34 9.32 9 10 C9.66 10 10.32 10 11 10 C11.61146157 14.19287932 11.89176993 17.60481155 9.546875 21.2734375 C7.77093604 23.28069624 5.94605199 25.15812638 4 27 C2.9988707 27.99886942 1.99846272 28.99846508 1 30 C1 29.34 1 28.68 1 28 C-1.16874252 28.50603992 -2.99967627 28.99983813 -5 30 C-5 28.68 -5 27.36 -5 26 C-4.34 26 -3.68 26 -3 26 C-3 25.34 -3 24.68 -3 24 C-2.0925 23.7525 -1.185 23.505 -0.25 23.25 C3.34192535 21.86849025 4.90144747 21.22854236 7 18 C7.64739556 13.63553555 7.97554826 9.64121648 5.671875 5.765625 C3.41498011 3.38217526 1.12510032 2.83336009 -2 2 C-1.34 1.34 -0.68 0.68 0 0 Z " fill="#9DA537" transform="translate(39,33)"/>
<path d="M0 0 C0.99 0 1.98 0 3 0 C3.66 1.32 4.32 2.64 5 4 C5.33 2.68 5.66 1.36 6 0 C9.3 0 12.6 0 16 0 C16 0.66 16 1.32 16 2 C15.01 2 14.02 2 13 2 C13.99 2.33 14.98 2.66 16 3 C16 4.98 16 6.96 16 9 C14.02 9 12.04 9 10 9 C10 7.35 10 5.7 10 4 C9.34 4 8.68 4 8 4 C8 5.65 8 7.3 8 9 C3.44615385 9.36923077 3.44615385 9.36923077 1.1875 7.5 C0.795625 7.005 0.40375 6.51 0 6 C0 6.99 0 7.98 0 9 C-0.99 9 -1.98 9 -3 9 C-2.01 6.03 -1.02 3.06 0 0 Z M8 1 C8 1.66 8 2.32 8 3 C8.66 3 9.32 3 10 3 C10 2.34 10 1.68 10 1 C9.34 1 8.68 1 8 1 Z " fill="#4C4B55" transform="translate(187,88)"/>
<path d="M0 0 C0.66 0 1.32 0 2 0 C2.33 1.65 2.66 3.3 3 5 C4.32 4.67 5.64 4.34 7 4 C7 3.34 7 2.68 7 2 C7.99 2 8.98 2 10 2 C10.33 1.34 10.66 0.68 11 0 C14.16727335 5.1468192 14.35050464 9.158256 14 15 C13.34 15 12.68 15 12 15 C12.33 13.02 12.66 11.04 13 9 C12.071875 9.165 11.14375 9.33 10.1875 9.5 C6.62882335 10.05822379 4.65229416 10.27305337 1.3125 8.875 C-1 7 -1 7 -1.375 3.875 C-1 1 -1 1 0 0 Z " fill="#1A3A82" transform="translate(21,66)"/>
<path d="M0 0 C3.63 1.65 7.26 3.3 11 5 C11 5.66 11 6.32 11 7 C11.66 7 12.32 7 13 7 C12.67 7.99 12.34 8.98 12 10 C10.02 9.01 8.04 8.02 6 7 C5.67 7.33 5.34 7.66 5 8 C5.99 8.33 6.98 8.66 8 9 C6 12 6 12 3 13 C3.33 17.29 3.66 21.58 4 26 C3.34 26.33 2.68 26.66 2 27 C1.80083984 25.24623047 1.80083984 25.24623047 1.59765625 23.45703125 C1.41937987 21.90884161 1.24098839 20.36066522 1.0625 18.8125 C0.93198242 17.65911133 0.93198242 17.65911133 0.79882812 16.48242188 C0.43701619 13.36011887 0.0753657 10.32814505 -0.62890625 7.26171875 C-1 5 -1 5 0 0 Z " fill="#EBE50B" transform="translate(1,15)"/>
<path d="M0 0 C3.375 -0.1875 3.375 -0.1875 7 0 C7.66 0.99 8.32 1.98 9 3 C11.58380177 3.25030977 11.58380177 3.25030977 14 3 C14.33 2.01 14.66 1.02 15 0 C15.66 0 16.32 0 17 0 C17 2.97 17 5.94 17 9 C16.34 9 15.68 9 15 9 C15 8.01 15 7.02 15 6 C13.68 6 12.36 6 11 6 C11.99 6.33 12.98 6.66 14 7 C14 7.66 14 8.32 14 9 C9.33333333 9 4.66666667 9 0 9 C0 6.03 0 3.06 0 0 Z M2 1 C2 3.31 2 5.62 2 8 C2.99 7.67 3.98 7.34 5 7 C5.73323796 4.98491642 5.73323796 4.98491642 6 3 C4.68 2.34 3.36 1.68 2 1 Z " fill="#4C4B55" transform="translate(139,88)"/>
<path d="M0 0 C0.33 0 0.66 0 1 0 C1 6.27 1 12.54 1 19 C5.29 16.69 9.58 14.38 14 12 C11.72649573 17.68376068 11.72649573 17.68376068 7.1875 19.875 C6.33542969 20.30554688 5.48335937 20.73609375 4.60546875 21.1796875 C0.78391904 22.38287407 -1.75258329 21.57313741 -5.3125 19.9375 C-5.869375 19.628125 -6.42625 19.31875 -7 19 C-6 17 -6 17 -5 16 C-5.66 16 -6.32 16 -7 16 C-7.33 15.01 -7.66 14.02 -8 13 C-4.98968256 12.06576355 -4.13349732 11.95550089 -1 13 C-1.33 14.98 -1.66 16.96 -2 19 C-1.34 19 -0.68 19 0 19 C-0.08378906 18.04738281 -0.16757812 17.09476563 -0.25390625 16.11328125 C-0.40666016 14.23189453 -0.40666016 14.23189453 -0.5625 12.3125 C-0.66691406 11.07113281 -0.77132812 9.82976562 -0.87890625 8.55078125 C-0.98493841 5.44164467 -0.77228525 2.99189028 0 0 Z " fill="#ECE50A" transform="translate(35,62)"/>
<path d="M0 0 C-0.33 0.33 -0.66 0.66 -1 1 C-0.34 1.33 0.32 1.66 1 2 C0.25 8.625 0.25 8.625 -2 12 C-2 11.34 -2 10.68 -2 10 C-4.31 9.67 -6.62 9.34 -9 9 C-8.979375 8.21625 -8.95875 7.4325 -8.9375 6.625 C-8.81315937 4.01885039 -8.81315937 4.01885039 -10 2 C-6.86358686 -1.13641314 -4.14410883 -1.38136961 0 0 Z " fill="#29467A" transform="translate(64,45)"/>
<path d="M0 0 C0.99 0 1.98 0 3 0 C3 0.99 3 1.98 3 3 C3.94875 3 4.8975 3 5.875 3 C11 3 11 3 14 4 C12.68 6.64 11.36 9.28 10 12 C9.01 11.67 8.02 11.34 7 11 C7 10.01 7 9.02 7 8 C6.67 8.33 6.34 8.66 6 9 C4.00041636 9.04080783 1.99954746 9.04254356 0 9 C0 6.03 0 3.06 0 0 Z M3 5 C3.33 5.99 3.66 6.98 4 8 C4.33 7.01 4.66 6.02 5 5 C4.34 5 3.68 5 3 5 Z " fill="#4C4B55" transform="translate(58,88)"/>
<path d="M0 0 C1.98 0 3.96 0 6 0 C6.33 0.99 6.66 1.98 7 3 C8.98 3 10.96 3 13 3 C13 4.98 13 6.96 13 9 C10.03 9 7.06 9 4 9 C3.67 8.34 3.34 7.68 3 7 C2.67 7.66 2.34 8.32 2 9 C1.34 9 0.68 9 0 9 C0 6.03 0 3.06 0 0 Z M2 1 C2.33 1.99 2.66 2.98 3 4 C3 3.01 3 2.02 3 1 C2.67 1 2.34 1 2 1 Z M5 4 C6 6 6 6 6 6 Z M9 4 C9.33 5.32 9.66 6.64 10 8 C10 6.68 10 5.36 10 4 C9.67 4 9.34 4 9 4 Z " fill="#4C4B55" transform="translate(332,88)"/>
<path d="M0 0 C0.33 0 0.66 0 1 0 C1.33 2.64 1.66 5.28 2 8 C3.65 6.35 5.3 4.7 7 3 C9 5 9 5 9 8 C9.66 8.33 10.32 8.66 11 9 C9.56839732 10.00842453 8.12948547 11.00647891 6.6875 12 C5.48673828 12.8353125 5.48673828 12.8353125 4.26171875 13.6875 C2 15 2 15 -1 15 C-0.67 10.05 -0.34 5.1 0 0 Z " fill="#1B3A82" transform="translate(38,65)"/>
<path d="M0 0 C0.99 0.495 0.99 0.495 2 1 C2.54081871 4.42518516 2.89080439 7.82311401 3.2109375 11.2734375 C3.41157309 13.18985331 3.69947731 15.09668965 4 17 C4.66 17.33 5.32 17.66 6 18 C6.38133299 19.9914056 6.71325582 21.99279077 7 24 C7.83333333 26.16666667 7.83333333 26.16666667 10 27 C9.54177532 30.46941546 9.10868317 33.67395049 8 37 C2.61397126 25.13433262 0.62384961 12.95025746 0 0 Z " fill="#F7EF04" transform="translate(0,24)"/>
<path d="M0 0 C0.33 0.66 0.66 1.32 1 2 C1.66 2.33 2.32 2.66 3 3 C3 3.99 3 4.98 3 6 C3.99 6.33 4.98 6.66 6 7 C5.34 8.32 4.68 9.64 4 11 C2.33333333 11 0.66666667 11 -1 11 C-1.66 11.99 -2.32 12.98 -3 14 C-3.33 10.04 -3.66 6.08 -4 2 C-2.68 1.34 -1.36 0.68 0 0 Z " fill="#2F4C76" transform="translate(7,26)"/>
<path d="M0 0 C1.32 0.33 2.64 0.66 4 1 C4 1.99 4 2.98 4 4 C4.66 4 5.32 4 6 4 C6.33 2.68 6.66 1.36 7 0 C7.99 0 8.98 0 10 0 C10 2.97 10 5.94 10 9 C6.66666667 9 3.33333333 9 0 9 C0 6.03 0 3.06 0 0 Z " fill="#4C4B55" transform="translate(251,88)"/>
<path d="M0 0 C0.66 0 1.32 0 2 0 C2 0.66 2 1.32 2 2 C4.64 2 7.28 2 10 2 C10 3.98 10 5.96 10 8 C6.7 8 3.4 8 0 8 C-1.125 2.25 -1.125 2.25 0 0 Z M2 3 C3 6 3 6 3 6 Z M6 3 C6.33 4.32 6.66 5.64 7 7 C7 5.68 7 4.36 7 3 C6.67 3 6.34 3 6 3 Z " fill="#4C4B55" transform="translate(237,89)"/>
<path d="M0 0 C0 3.3 0 6.6 0 10 C-0.33 10 -0.66 10 -1 10 C-1 7.03 -1 4.06 -1 1 C-2.051875 1.474375 -3.10375 1.94875 -4.1875 2.4375 C-10.0111336 5.06384456 -15.53463269 5.13090928 -21.8125 5.0625 C-22.99489258 5.05573242 -22.99489258 5.05573242 -24.20117188 5.04882812 C-26.13414761 5.03711312 -28.06708393 5.01917998 -30 5 C-30 4.67 -30 4.34 -30 4 C-29.04480469 3.97421875 -28.08960938 3.9484375 -27.10546875 3.921875 C-19.50294576 3.58836452 -13.32327256 2.88440713 -6.26953125 -0.2578125 C-4 -1 -4 -1 0 0 Z " fill="#EAE30C" transform="translate(69,19)"/>
<path d="M0 0 C1.65 0 3.3 0 5 0 C5 1.32 5 2.64 5 4 C5.66 4 6.32 4 7 4 C7 5.65 7 7.3 7 9 C4.36 9 1.72 9 -1 9 C-0.67 6.03 -0.34 3.06 0 0 Z " fill="#4C4B55" transform="translate(171,88)"/>
<path d="M0 0 C0.5671875 0.53238281 1.134375 1.06476562 1.71875 1.61328125 C2.31816406 2.17144531 2.91757812 2.72960938 3.53515625 3.3046875 C4.36853516 4.10712891 4.36853516 4.10712891 5.21875 4.92578125 C6.023125 5.62703125 6.8275 6.32828125 7.65625 7.05078125 C9.21875 8.92578125 9.21875 8.92578125 9.21875 12.92578125 C9.87875 13.58578125 10.53875 14.24578125 11.21875 14.92578125 C9.56875 15.25578125 7.91875 15.58578125 6.21875 15.92578125 C5.88875 14.93578125 5.55875 13.94578125 5.21875 12.92578125 C5.54875 12.26578125 5.87875 11.60578125 6.21875 10.92578125 C5.55875 10.92578125 4.89875 10.92578125 4.21875 10.92578125 C4.095 10.05953125 4.095 10.05953125 3.96875 9.17578125 C2.96597163 6.16744613 1.71041911 4.87871109 -0.78125 2.92578125 C-3.92606791 2.12262471 -3.92606791 2.12262471 -6.78125 1.92578125 C-5.78125 -0.07421875 -5.78125 -0.07421875 -3.9375 -0.8671875 C-1.78125 -1.07421875 -1.78125 -1.07421875 0 0 Z " fill="#909A3F" transform="translate(43.78125,32.07421875)"/>
<path d="M0 0 C0.66 0 1.32 0 2 0 C2 0.99 2 1.98 2 3 C4.31 3 6.62 3 9 3 C9 4.98 9 6.96 9 9 C7.35 9 5.7 9 4 9 C4 7.68 4 6.36 4 5 C3.34 5 2.68 5 2 5 C2 6.32 2 7.64 2 9 C1.34 9 0.68 9 0 9 C0 6.03 0 3.06 0 0 Z " fill="#4C4B55" transform="translate(157,88)"/>
<path d="M0 0 C2 1 2 1 3.125 3 C4.30338431 7.04017477 4.16384045 10.82206849 4 15 C3.34 15 2.68 15 2 15 C2.33 13.02 2.66 11.04 3 9 C1.35 9 -0.3 9 -2 9 C-3.0625 6.625 -3.0625 6.625 -4 4 C-3.67 3.34 -3.34 2.68 -3 2 C-2.01 2 -1.02 2 0 2 C0 1.34 0 0.68 0 0 Z " fill="#26447B" transform="translate(31,66)"/>
<path d="M0 0 C2 2 2 2 2.23046875 4.7578125 C2.15181424 10.92146599 1.95581688 16.90666738 1 23 C0.34 23 -0.32 23 -1 23 C-1 1 -1 1 0 0 Z " fill="#FAEF02" transform="translate(69,15)"/>
<path d="M0 0 C0.99 0 1.98 0 3 0 C3.33 2.31 3.66 4.62 4 7 C4.66 4.69 5.32 2.38 6 0 C6.66 0 7.32 0 8 0 C8.09765625 6.15234375 8.09765625 6.15234375 8 8 C7 9 7 9 3.9375 9.0625 C2.968125 9.041875 1.99875 9.02125 1 9 C-0.4783226 6.04335481 -0.06032783 3.25770263 0 0 Z " fill="#4C4B55" transform="translate(273,88)"/>
<path d="M0 0 C1.32 0.33 2.64 0.66 4 1 C4.625 2.8125 4.625 2.8125 5 5 C4.01 6.485 4.01 6.485 3 8 C1.76265658 12.33070198 1.92430216 16.53382725 2 21 C1.34 21 0.68 21 0 21 C0 14.07 0 7.14 0 0 Z " fill="#5A6E5E" transform="translate(36,60)"/>
<path d="M0 0 C2.31 0 4.62 0 7 0 C7.625 3.375 7.625 3.375 8 7 C6 9 6 9 2.875 9.125 C1.451875 9.063125 1.451875 9.063125 0 9 C0 6.03 0 3.06 0 0 Z M2 1 C2 3.31 2 5.62 2 8 C2.99 7.67 3.98 7.34 5 7 C5.73323796 4.98491642 5.73323796 4.98491642 6 3 C4.68 2.34 3.36 1.68 2 1 Z " fill="#4C4B55" transform="translate(262,88)"/>
<path d="M0 0 C5.94146101 0.52919896 11.93497881 0.32847913 17.89453125 0.2578125 C14.63699201 2.19490888 12.23843197 2.49496695 8.47265625 2.453125 C6.93544922 2.44345703 6.93544922 2.44345703 5.3671875 2.43359375 C4.30371094 2.41683594 3.24023438 2.40007813 2.14453125 2.3828125 C0.52611328 2.36927734 0.52611328 2.36927734 -1.125 2.35546875 C-3.78538153 2.33192555 -6.44531211 2.29904049 -9.10546875 2.2578125 C-9.10546875 1.5978125 -9.10546875 0.9378125 -9.10546875 0.2578125 C-5.7409645 -0.86368892 -3.45788187 -0.4472882 0 0 Z " fill="#FDF400" transform="translate(40.10546875,20.7421875)"/>
<path d="M0 0 C3.53536118 1.41414447 4.37747047 2.65353284 6 6 C7.32392972 7.01241685 8.65599167 8.01439389 10 9 C10 9.66 10 10.32 10 11 C5.25 10.25 5.25 10.25 3 8 C2.484375 7.54625 1.96875 7.0925 1.4375 6.625 C-0.21546215 4.75643409 -0.67260407 3.45546949 -1 1 C-0.67 0.67 -0.34 0.34 0 0 Z " fill="#556A60" transform="translate(46,27)"/>
<path d="M0 0 C2.64 0.99 5.28 1.98 8 3 C8 3.66 8 4.32 8 5 C8.66 5 9.32 5 10 5 C9.67 5.99 9.34 6.98 9 8 C7.906875 7.484375 6.81375 6.96875 5.6875 6.4375 C2.13472753 4.59997888 2.13472753 4.59997888 -1 6 C-1.625 4.125 -1.625 4.125 -2 2 C-1.34 1.34 -0.68 0.68 0 0 Z " fill="#E9E30C" transform="translate(4,17)"/>
<path d="M0 0 C2.14699969 3.44175522 2.09856795 5.7720292 1.625 9.75 C1.51414062 10.73484375 1.40328125 11.7196875 1.2890625 12.734375 C1.19367188 13.48203125 1.09828125 14.2296875 1 15 C0.34 15 -0.32 15 -1 15 C-1.33 15.66 -1.66 16.32 -2 17 C-1.03644647 5.47835991 -1.03644647 5.47835991 0 0 Z " fill="#E1DD10" transform="translate(67,34)"/>
<path d="M0 0 C3.84713003 0.87434773 5.72297038 1.70166041 8.4375 4.625 C10.49250542 9.0638117 9.97750953 11.27537059 9 16 C8.67 16 8.34 16 8 16 C7.8453125 14.14375 7.8453125 14.14375 7.6875 12.25 C7.22369388 8.70250995 6.75572337 6.47064854 4 4 C0.91222828 2.71991738 0.91222828 2.71991738 -2 2 C-1.34 1.34 -0.68 0.68 0 0 Z " fill="#B8BB28" transform="translate(39,33)"/>
<path d="M0 0 C0.33 0 0.66 0 1 0 C1 4.95 1 9.9 1 15 C0.34 15 -0.32 15 -1 15 C-1.33 15.99 -1.66 16.98 -2 18 C-2.66 18 -3.32 18 -4 18 C-4.66 16.68 -5.32 15.36 -6 14 C-5.01 14 -4.02 14 -3 14 C-2.67 13.34 -2.34 12.68 -2 12 C-2 12.66 -2 13.32 -2 14 C-1.34 14 -0.68 14 0 14 C0 9.38 0 4.76 0 0 Z " fill="#E0DD11" transform="translate(35,44)"/>
<path d="M0 0 C0.99 0.66 1.98 1.32 3 2 C2.01 2 1.02 2 0 2 C0.33 4.31 0.66 6.62 1 9 C0.01 9.33 -0.98 9.66 -2 10 C-4.1385485 7.8614515 -4.42655063 6.86724686 -5 4 C-4.01 3.34 -3.02 2.68 -2 2 C-1.34 1.34 -0.68 0.68 0 0 Z " fill="#546961" transform="translate(49,57)"/>
<path d="M0 0 C2.97 0 5.94 0 9 0 C7.86695008 3.39914975 6.87481525 4.05254451 4 6 C2 4 2 4 0 0 Z " fill="#3E576E" transform="translate(40,24)"/>
<path d="M0 0 C0.66 0 1.32 0 2 0 C2 0.66 2 1.32 2 2 C2.66 2.33 3.32 2.66 4 3 C2 6 2 6 -0.125 6.6875 C-0.74375 6.790625 -1.3625 6.89375 -2 7 C-2.33 5.35 -2.66 3.7 -3 2 C-2.01 2 -1.02 2 0 2 C0 1.34 0 0.68 0 0 Z " fill="#E7E30D" transform="translate(11,56)"/>
<path d="M0 0 C0.33 0.66 0.66 1.32 1 2 C1.99 2.33 2.98 2.66 4 3 C3.67 4.32 3.34 5.64 3 7 C1.35 7 -0.3 7 -2 7 C-2.33 5.35 -2.66 3.7 -3 2 C-2.01 1.34 -1.02 0.68 0 0 Z " fill="#BCC026" transform="translate(28,47)"/>
<path d="M0 0 C0.66 0 1.32 0 2 0 C2 0.66 2 1.32 2 2 C2.66 2 3.32 2 4 2 C3.67 3.65 3.34 5.3 3 7 C1.35 7 -0.3 7 -2 7 C-2 5.35 -2 3.7 -2 2 C-1.34 2 -0.68 2 0 2 C0 1.34 0 0.68 0 0 Z " fill="#C1C522" transform="translate(17,47)"/>
<path d="M0 0 C1.32 0.66 2.64 1.32 4 2 C4 3.32 4 4.64 4 6 C4.66 6.66 5.32 7.32 6 8 C4.35 8.33 2.7 8.66 1 9 C0.67 8.01 0.34 7.02 0 6 C0.33 5.34 0.66 4.68 1 4 C0.34 4 -0.32 4 -1 4 C-0.67 2.68 -0.34 1.36 0 0 Z " fill="#879344" transform="translate(49,39)"/>
<path d="M0 0 C0.99 0 1.98 0 3 0 C2.67 1.32 2.34 2.64 2 4 C3.65 4 5.3 4 7 4 C6.67 4.99 6.34 5.98 6 7 C3.125 6.75 3.125 6.75 0 6 C-1.375 3.9375 -1.375 3.9375 -2 2 C-1.34 1.34 -0.68 0.68 0 0 Z " fill="#40596C" transform="translate(56,45)"/>
<path d="M0 0 C2.64 0 5.28 0 8 0 C8.33 0.99 8.66 1.98 9 3 C8.01 4.485 8.01 4.485 7 6 C7 5.34 7 4.68 7 4 C4.69 3.67 2.38 3.34 0 3 C0 2.01 0 1.02 0 0 Z " fill="#314D75" transform="translate(55,51)"/>
<path d="M0 0 C1.32 0.33 2.64 0.66 4 1 C4 2.65 4 4.3 4 6 C2.68 6.33 1.36 6.66 0 7 C0 4.69 0 2.38 0 0 Z " fill="#596E5E" transform="translate(36,23)"/>
<path d="M0 0 C0.33 0.66 0.66 1.32 1 2 C1.99 2.33 2.98 2.66 4 3 C2 6 2 6 -0.125 6.6875 C-0.74375 6.790625 -1.3625 6.89375 -2 7 C-2.33 5.35 -2.66 3.7 -3 2 C-2.01 1.34 -1.02 0.68 0 0 Z " fill="#CCCE1C" transform="translate(22,56)"/>
<path d="M0 0 C0 3 0 3 -1.3125 4.38671875 C-2.875 5.59114583 -4.4375 6.79557292 -6 8 C-6.66 7.67 -7.32 7.34 -8 7 C-3.375 1.125 -3.375 1.125 0 0 Z " fill="#F9EF03" transform="translate(56,69)"/>
<path d="M0 0 C0.99 0 1.98 0 3 0 C3 2.64 3 5.28 3 8 C1.68 7.67 0.36 7.34 -1 7 C-0.67 4.69 -0.34 2.38 0 0 Z " fill="#2C4878" transform="translate(40,66)"/>
<path d="M0 0 C0.33 1.32 0.66 2.64 1 4 C0.01 4.495 0.01 4.495 -1 5 C-1 4.34 -1 3.68 -1 3 C-3.16874252 3.50603992 -4.99967627 3.99983813 -7 5 C-7 3.68 -7 2.36 -7 1 C-4.53721199 -0.231394 -2.7204945 -0.07159196 0 0 Z " fill="#919C3E" transform="translate(41,58)"/>
<path d="M0 0 C2.475 0.99 2.475 0.99 5 2 C4.67 3.65 4.34 5.3 4 7 C3.01 7.33 2.02 7.66 1 8 C1 6.68 1 5.36 1 4 C0.34 3.67 -0.32 3.34 -1 3 C-0.67 2.01 -0.34 1.02 0 0 Z " fill="#556A60" transform="translate(52,50)"/>
<path d="M0 0 C1.32 0.99 2.64 1.98 4 3 C3.67 3.99 3.34 4.98 3 6 C1.68 6 0.36 6 -1 6 C-1.66 4.68 -2.32 3.36 -3 2 C-2.01 2 -1.02 2 0 2 C0 1.34 0 0.68 0 0 Z " fill="#D5D517" transform="translate(19,30)"/>
<path d="M0 0 C0.33 0.66 0.66 1.32 1 2 C1.99 2.33 2.98 2.66 4 3 C3.34 3 2.68 3 2 3 C2 3.99 2 4.98 2 6 C0.68 6 -0.64 6 -2 6 C-2.33 4.68 -2.66 3.36 -3 2 C-2.01 1.34 -1.02 0.68 0 0 Z " fill="#D8D816" transform="translate(30,30)"/>
<path d="M0 0 C-0.33 1.65 -0.66 3.3 -1 5 C-1.66 4.67 -2.32 4.34 -3 4 C-3.99 3.67 -4.98 3.34 -6 3 C-6.33 2.01 -6.66 1.02 -7 0 C-3.86650268 -1.04449911 -3.01031744 -0.93423645 0 0 Z " fill="#C3C722" transform="translate(34,75)"/>
<path d="M0 0 C0.33 0.99 0.66 1.98 1 3 C-1.1875 5.0625 -1.1875 5.0625 -4 7 C-6.8125 6.75 -6.8125 6.75 -9 6 C-9 5.67 -9 5.34 -9 5 C-8.071875 4.731875 -7.14375 4.46375 -6.1875 4.1875 C-3.23759634 3.08851629 -1.94384814 2.37581439 0 0 Z " fill="#B3B82B" transform="translate(45,52)"/>
<path d="M0 0 C0.33 0.66 0.66 1.32 1 2 C1.99 2.33 2.98 2.66 4 3 C3.34 4.32 2.68 5.64 2 7 C-1 6 -1 6 -2.1875 3.9375 C-2.5896875 2.9784375 -2.5896875 2.9784375 -3 2 C-2.01 2 -1.02 2 0 2 C0 1.34 0 0.68 0 0 Z " fill="#DEDD12" transform="translate(9,30)"/>
<path d="M0 0 C0.66 0 1.32 0 2 0 C2 0.66 2 1.32 2 2 C2.66 2.33 3.32 2.66 4 3 C3.01 4.485 3.01 4.485 2 6 C1.01 6 0.02 6 -1 6 C-1.33 4.68 -1.66 3.36 -2 2 C-1.34 2 -0.68 2 0 2 C0 1.34 0 0.68 0 0 Z " fill="#DFDE12" transform="translate(23,39)"/>
<path d="M0 0 C1.32 0.99 2.64 1.98 4 3 C3.01 4.485 3.01 4.485 2 6 C0.68 5.67 -0.64 5.34 -2 5 C-2 4.01 -2 3.02 -2 2 C-1.34 2 -0.68 2 0 2 C0 1.34 0 0.68 0 0 Z " fill="#DDDD12" transform="translate(13,39)"/>
<path d="M0 0 C1.4606285 2.64738916 2 3.89448334 2 7 C-0.4375 6.1875 -0.4375 6.1875 -3 5 C-3.33 4.01 -3.66 3.02 -4 2 C-2.68 1.34 -1.36 0.68 0 0 Z " fill="#24417D" transform="translate(58,27)"/>
<path d="M0 0 C0.33 0.66 0.66 1.32 1 2 C-0.8125 4 -0.8125 4 -3 6 C-3.99 6 -4.98 6 -6 6 C-4.75453595 2.26360784 -3.36595047 1.81243487 0 0 Z " fill="#EEE709" transform="translate(48,74)"/>
<path d="M0 0 C0.99 0 1.98 0 3 0 C3.33 0.99 3.66 1.98 4 3 C3.01 3.33 2.02 3.66 1 4 C0.01 5.485 0.01 5.485 -1 7 C-1.66 6.34 -2.32 5.68 -3 5 C-2.34 5 -1.68 5 -1 5 C-0.67 3.35 -0.34 1.7 0 0 Z " fill="#DFDB12" transform="translate(28,21)"/>
<path d="M0 0 C2.64 0.99 5.28 1.98 8 3 C7.67 3.66 7.34 4.32 7 5 C5.35 5 3.7 5 2 5 C1.34 3.35 0.68 1.7 0 0 Z " fill="#E7E10D" transform="translate(24,75)"/>
<path d="M0 0 C0.33 0.66 0.66 1.32 1 2 C1.66 2.33 2.32 2.66 3 3 C1.625 4.5 1.625 4.5 0 6 C-0.66 6 -1.32 6 -2 6 C-2 4.68 -2 3.36 -2 2 C-1.34 2 -0.68 2 0 2 C0 1.34 0 0.68 0 0 Z " fill="#E2E210" transform="translate(26,65)"/>
<path d="M0 0 C2.64 0.33 5.28 0.66 8 1 C6.3125 2.625 6.3125 2.625 4 4 C1.25 3.1875 1.25 3.1875 -1 2 C-0.67 1.34 -0.34 0.68 0 0 Z " fill="#5C705C" transform="translate(53,43)"/>
<path d="M0 0 C0.66 0.33 1.32 0.66 2 1 C1.67 2.65 1.34 4.3 1 6 C0.34 6 -0.32 6 -1 6 C-1.625 4.125 -1.625 4.125 -2 2 C-1.34 1.34 -0.68 0.68 0 0 Z " fill="#A7AD32" transform="translate(4,17)"/>
<path d="M0 0 C0.99 0 1.98 0 3 0 C3 0.66 3 1.32 3 2 C2.01 2 1.02 2 0 2 C0 1.34 0 0.68 0 0 Z " fill="#4C4B55" transform="translate(288,88)"/>
<path d="M0 0 C0.66 0 1.32 0 2 0 C2 0.66 2 1.32 2 2 C1.34 2 0.68 2 0 2 C0 1.34 0 0.68 0 0 Z " fill="#4C4B55" transform="translate(207,88)"/>
<path d="M0 0 C0.66 0 1.32 0 2 0 C2 0.66 2 1.32 2 2 C1.34 2 0.68 2 0 2 C0 1.34 0 0.68 0 0 Z " fill="#4C4B55" transform="translate(164,88)"/>
</svg>
